<svg width="24" height="24" viewBox="0 0 24 24" fill="none" xmlns="http://www.w3.org/2000/svg">
<g id="basil:location-check-outline">
<g id="Group">
<path id="Vector" fill-rule="evenodd" clip-rule="evenodd" d="M15.5297 7.46995C15.6701 7.61058 15.749 7.8012 15.749 7.99995C15.749 8.1987 15.6701 8.38932 15.5297 8.52995L12.0297 12.03C11.889 12.1704 11.6984 12.2493 11.4997 12.2493C11.3009 12.2493 11.1103 12.1704 10.9697 12.03L8.96967 10.03C8.89598 9.96129 8.83688 9.87849 8.79588 9.78649C8.75489 9.69449 8.73285 9.59518 8.73107 9.49447C8.7293 9.39377 8.74782 9.29374 8.78554 9.20035C8.82326 9.10696 8.87941 9.02213 8.95063 8.95091C9.02185 8.87969 9.10668 8.82355 9.20007 8.78583C9.29346 8.74811 9.39348 8.72958 9.49419 8.73136C9.59489 8.73314 9.6942 8.75518 9.7862 8.79617C9.8782 8.83716 9.961 8.89626 10.0297 8.96995L11.4997 10.4399L14.4697 7.46995C14.6103 7.3295 14.8009 7.25061 14.9997 7.25061C15.1984 7.25061 15.389 7.3295 15.5297 7.46995Z" fill="#F29727"/>
<path id="Vector_2" fill-rule="evenodd" clip-rule="evenodd" d="M3.52389 8.857C3.69481 6.7838 4.63911 4.85069 6.1693 3.44147C7.69949 2.03226 9.70366 1.24999 11.7839 1.25H12.2159C14.2961 1.24999 16.3003 2.03226 17.8305 3.44147C19.3607 4.85069 20.305 6.7838 20.4759 8.857C20.6661 11.1663 19.9527 13.4593 18.4859 15.253L13.6929 21.114C13.4878 21.3648 13.2295 21.567 12.9367 21.7058C12.6439 21.8445 12.3239 21.9165 11.9999 21.9165C11.6759 21.9165 11.3559 21.8445 11.0631 21.7058C10.7703 21.567 10.512 21.3648 10.3069 21.114L5.51389 15.253C4.047 13.4593 3.33357 11.1663 3.52389 8.857ZM11.7839 2.75C10.0804 2.75026 8.43922 3.39103 7.18621 4.54512C5.93319 5.69921 5.15992 7.28225 5.01989 8.98C4.86149 10.9019 5.45517 12.8102 6.67589 14.303L11.4689 20.165C11.5333 20.2439 11.6145 20.3074 11.7065 20.351C11.7985 20.3947 11.8991 20.4173 12.0009 20.4173C12.1027 20.4173 12.2033 20.3947 12.2953 20.351C12.3873 20.3074 12.4685 20.2439 12.5329 20.165L17.3259 14.303C18.5459 12.8099 19.1388 10.9016 18.9799 8.98C18.8398 7.28208 18.0664 5.6989 16.8132 4.54478C15.56 3.39066 13.9186 2.75001 12.2149 2.75H11.7829H11.7839Z" fill="#F29727"/>
</g>
</g>
</svg>
