<svg width="29" height="32" viewBox="0 0 29 32" fill="none" xmlns="http://www.w3.org/2000/svg">
<g filter="url(#filter0_d_1_24911)">
<path d="M10 5.75C9.59 5.75 9.25 5.41 9.25 5V2C9.25 1.59 9.59 1.25 10 1.25C10.41 1.25 10.75 1.59 10.75 2V5C10.75 5.41 10.41 5.75 10 5.75Z" fill="white"/>
<path d="M18 5.75C17.59 5.75 17.25 5.41 17.25 5V2C17.25 1.59 17.59 1.25 18 1.25C18.41 1.25 18.75 1.59 18.75 2V5C18.75 5.41 18.41 5.75 18 5.75Z" fill="white"/>
<path d="M10.5 14.5002C10.24 14.5002 9.98 14.3902 9.79 14.2102C9.61 14.0202 9.5 13.7702 9.5 13.5002C9.5 13.3702 9.53 13.2402 9.58 13.1202C9.63 13.0002 9.7 12.8902 9.79 12.7902C10.16 12.4202 10.83 12.4202 11.21 12.7902C11.39 12.9802 11.5 13.2402 11.5 13.5002C11.5 13.5602 11.49 13.6302 11.48 13.7002C11.47 13.7602 11.45 13.8202 11.42 13.8802C11.4 13.9402 11.37 14.0002 11.33 14.0602C11.29 14.1102 11.25 14.1602 11.21 14.2102C11.02 14.3902 10.76 14.5002 10.5 14.5002Z" fill="white"/>
<path d="M14 14.4998C13.87 14.4998 13.74 14.4698 13.62 14.4198C13.49 14.3698 13.39 14.2998 13.29 14.2098C13.11 14.0198 13 13.7698 13 13.4998C13 13.3698 13.03 13.2398 13.08 13.1198C13.13 12.9998 13.2 12.8898 13.29 12.7898C13.39 12.6998 13.49 12.6298 13.62 12.5798C13.99 12.4298 14.43 12.5098 14.71 12.7898C14.89 12.9798 15 13.2398 15 13.4998C15 13.5598 14.99 13.6298 14.98 13.6998C14.97 13.7598 14.95 13.8198 14.92 13.8798C14.9 13.9398 14.87 13.9998 14.83 14.0598C14.8 14.1098 14.75 14.1598 14.71 14.2098C14.52 14.3898 14.26 14.4998 14 14.4998Z" fill="white"/>
<path d="M10.5 17.9998C10.37 17.9998 10.24 17.9698 10.12 17.9198C9.99 17.8698 9.88 17.7998 9.79 17.7098C9.7 17.6198 9.63 17.5098 9.58 17.3798C9.53 17.2598 9.5 17.1298 9.5 16.9998C9.5 16.8698 9.53 16.7398 9.58 16.6198C9.63 16.4898 9.7 16.3798 9.79 16.2898C9.88 16.1998 9.99 16.1298 10.12 16.0798C10.36 15.9798 10.64 15.9698 10.88 16.0798C11.01 16.1298 11.12 16.1998 11.21 16.2898C11.3 16.3798 11.37 16.4898 11.42 16.6198C11.47 16.7398 11.5 16.8698 11.5 16.9998C11.5 17.1298 11.47 17.2598 11.42 17.3798C11.37 17.5098 11.3 17.6198 11.21 17.7098C11.12 17.7998 11.01 17.8698 10.88 17.9198C10.76 17.9698 10.63 17.9998 10.5 17.9998Z" fill="white"/>
<path d="M22.5 9.83984H5.5C5.09 9.83984 4.75 9.49984 4.75 9.08984C4.75 8.67984 5.09 8.33984 5.5 8.33984H22.5C22.91 8.33984 23.25 8.67984 23.25 9.08984C23.25 9.49984 22.91 9.83984 22.5 9.83984Z" fill="white"/>
<path d="M20 23.75C18.83 23.75 17.72 23.33 16.87 22.56C16.51 22.26 16.19 21.88 15.93 21.44C15.49 20.72 15.25 19.87 15.25 19C15.25 16.38 17.38 14.25 20 14.25C21.36 14.25 22.66 14.84 23.56 15.86C24.33 16.74 24.75 17.85 24.75 19C24.75 19.87 24.51 20.72 24.06 21.45C23.22 22.87 21.66 23.75 20 23.75ZM20 15.75C18.21 15.75 16.75 17.21 16.75 19C16.75 19.59 16.91 20.17 17.22 20.67C17.39 20.97 17.61 21.22 17.85 21.43C18.45 21.97 19.2 22.25 20 22.25C21.15 22.25 22.19 21.66 22.78 20.68C23.09 20.17 23.25 19.6 23.25 19C23.25 18.22 22.96 17.46 22.44 16.85C21.82 16.15 20.93 15.75 20 15.75Z" fill="white"/>
<path d="M19.4299 20.74C19.2399 20.74 19.0499 20.67 18.8999 20.52L17.9099 19.53C17.6199 19.24 17.6199 18.7601 17.9099 18.4701C18.1999 18.1801 18.6799 18.1801 18.9699 18.4701L19.4499 18.9501L21.0499 17.4701C21.3499 17.1901 21.8299 17.2101 22.1099 17.5101C22.3899 17.8101 22.3699 18.2901 22.0699 18.5701L19.9399 20.5401C19.7899 20.6701 19.6099 20.74 19.4299 20.74Z" fill="white"/>
<path d="M17.37 22.75H10C6.35 22.75 4.25 20.65 4.25 17V8.5C4.25 4.85 6.35 2.75 10 2.75H18C21.65 2.75 23.75 4.85 23.75 8.5V16.36C23.75 16.67 23.56 16.95 23.26 17.06C22.97 17.17 22.64 17.09 22.43 16.85C21.81 16.15 20.92 15.75 19.99 15.75C18.2 15.75 16.74 17.21 16.74 19C16.74 19.59 16.9 20.17 17.21 20.67C17.38 20.97 17.6 21.22 17.84 21.43C18.08 21.63 18.17 21.96 18.06 22.26C17.97 22.55 17.69 22.75 17.37 22.75ZM10 4.25C7.14 4.25 5.75 5.64 5.75 8.5V17C5.75 19.86 7.14 21.25 10 21.25H15.82C15.45 20.57 15.25 19.8 15.25 19C15.25 16.38 17.38 14.25 20 14.25C20.79 14.25 21.57 14.45 22.25 14.82V8.5C22.25 5.64 20.86 4.25 18 4.25H10Z" fill="white"/>
</g>
<defs>
<filter id="filter0_d_1_24911" x="-2" y="0" width="32" height="32" filterUnits="userSpaceOnUse" color-interpolation-filters="sRGB">
<feFlood flood-opacity="0" result="BackgroundImageFix"/>
<feColorMatrix in="SourceAlpha" type="matrix" values="0 0 0 0 0 0 0 0 0 0 0 0 0 0 0 0 0 0 127 0" result="hardAlpha"/>
<feOffset dy="4"/>
<feGaussianBlur stdDeviation="2"/>
<feComposite in2="hardAlpha" operator="out"/>
<feColorMatrix type="matrix" values="0 0 0 0 0 0 0 0 0 0 0 0 0 0 0 0 0 0 0.25 0"/>
<feBlend mode="normal" in2="BackgroundImageFix" result="effect1_dropShadow_1_24911"/>
<feBlend mode="normal" in="SourceGraphic" in2="effect1_dropShadow_1_24911" result="shape"/>
</filter>
</defs>
</svg>
