<svg width="16" height="16" viewBox="0 0 16 16" fill="none" xmlns="http://www.w3.org/2000/svg">
<g id="ph:clock-light">
<path id="Vector" d="M8 1C6.61553 1 5.26215 1.41054 4.11101 2.17971C2.95987 2.94888 2.06266 4.04213 1.53285 5.32122C1.00303 6.6003 0.86441 8.00776 1.13451 9.36563C1.4046 10.7235 2.07129 11.9708 3.05026 12.9497C4.02922 13.9287 5.2765 14.5954 6.63437 14.8655C7.99224 15.1356 9.3997 14.997 10.6788 14.4672C11.9579 13.9373 13.0511 13.0401 13.8203 11.889C14.5895 10.7378 15 9.38447 15 8C14.9978 6.14415 14.2596 4.36494 12.9473 3.05266C11.6351 1.74038 9.85585 1.00218 8 1ZM8 14.1765C6.77841 14.1765 5.58425 13.8142 4.56854 13.1355C3.55282 12.4569 2.76117 11.4922 2.29369 10.3636C1.82621 9.23503 1.70389 7.99315 1.94221 6.79503C2.18053 5.59691 2.76878 4.49637 3.63258 3.63258C4.49637 2.76878 5.59691 2.18053 6.79503 1.94221C7.99315 1.70389 9.23503 1.8262 10.3636 2.29368C11.4922 2.76117 12.4569 3.55282 13.1355 4.56854C13.8142 5.58425 14.1765 6.77841 14.1765 8C14.1747 9.63754 13.5233 11.2075 12.3654 12.3654C11.2075 13.5233 9.63754 14.1747 8 14.1765ZM12.2549 8C12.2549 8.1092 12.2115 8.21394 12.1343 8.29116C12.0571 8.36838 11.9523 8.41176 11.8431 8.41176H8C7.89079 8.41176 7.78606 8.36838 7.70884 8.29116C7.63162 8.21394 7.58824 8.1092 7.58824 8V4.15686C7.58824 4.04766 7.63162 3.94292 7.70884 3.8657C7.78606 3.78848 7.89079 3.7451 8 3.7451C8.10921 3.7451 8.21394 3.78848 8.29116 3.8657C8.36838 3.94292 8.41177 4.04766 8.41177 4.15686V7.58823H11.8431C11.9523 7.58823 12.0571 7.63162 12.1343 7.70884C12.2115 7.78606 12.2549 7.89079 12.2549 8Z" fill="#F78A4C"/>
</g>
</svg>
