<svg width="26" height="26" viewBox="0 0 26 26" fill="none" xmlns="http://www.w3.org/2000/svg">
<g id="solar:calendar-linear">
<g id="Group">
<path id="Vector" d="M2.16663 12.9999C2.16663 8.91467 2.16663 6.8715 3.43629 5.60292C4.70488 4.33325 6.74804 4.33325 10.8333 4.33325H15.1666C19.2519 4.33325 21.295 4.33325 22.5636 5.60292C23.8333 6.8715 23.8333 8.91467 23.8333 12.9999V15.1666C23.8333 19.2518 23.8333 21.295 22.5636 22.5636C21.295 23.8333 19.2519 23.8333 15.1666 23.8333H10.8333C6.74804 23.8333 4.70488 23.8333 3.43629 22.5636C2.16663 21.295 2.16663 19.2518 2.16663 15.1666V12.9999Z" stroke="#45484F"/>
<path id="Vector_2" d="M7.58325 4.33325V2.70825M18.4166 4.33325V2.70825M2.70825 9.74992H23.2916" stroke="#45484F" stroke-linecap="round"/>
<path id="Vector_3" d="M15.2222 18.3V16.5L18 18.75L15.2222 21V19.2H8.55556V18.3H15.2222ZM10.7778 12V13.7995L17.4444 13.8V14.7H10.7778V16.5L8 14.25L10.7778 12Z" fill="#45484F"/>
</g>
</g>
</svg>
