<svg width="24" height="24" viewBox="0 0 24 24" fill="none" xmlns="http://www.w3.org/2000/svg">
<g id="solar:history-linear">
<g id="Group">
<path id="Vector" d="M12 8V12L14.5 14.5" stroke="#F29727" stroke-width="1.5" stroke-linecap="round" stroke-linejoin="round"/>
<path id="Vector_2" d="M4.33786 6.87101L3.58786 6.87401C3.58864 7.07171 3.66746 7.26111 3.80716 7.401C3.94687 7.54089 4.13616 7.61996 4.33386 7.62101L4.33786 6.87101ZM6.87986 7.63301C6.97835 7.63347 7.07596 7.61453 7.16713 7.57726C7.2583 7.53999 7.34124 7.48513 7.41121 7.41582C7.48118 7.3465 7.53681 7.26408 7.57493 7.17326C7.61304 7.08244 7.6329 6.985 7.63336 6.88651C7.63381 6.78802 7.61487 6.6904 7.5776 6.59923C7.54034 6.50806 7.48548 6.42513 7.41616 6.35516C7.34684 6.28519 7.26442 6.22956 7.1736 6.19144C7.08278 6.15333 6.98535 6.13347 6.88686 6.13301L6.87986 7.63301ZM5.07486 4.32101C5.07433 4.22252 5.05441 4.1251 5.01623 4.0343C4.97806 3.94351 4.92237 3.86113 4.85236 3.79185C4.78234 3.72258 4.69937 3.66778 4.60817 3.63057C4.51698 3.59337 4.41935 3.57449 4.32086 3.57501C4.22236 3.57554 4.12494 3.59546 4.03415 3.63363C3.94335 3.67181 3.86097 3.72749 3.7917 3.79751C3.72242 3.86752 3.66762 3.9505 3.63041 4.04169C3.59321 4.13289 3.57433 4.23052 3.57486 4.32901L5.07486 4.32101ZM3.82686 10.785C3.84123 10.687 3.83603 10.5871 3.81158 10.4911C3.78713 10.3951 3.7439 10.3049 3.68438 10.2257C3.62487 10.1465 3.55026 10.0799 3.46485 10.0297C3.37945 9.97945 3.28494 9.94666 3.18679 9.93319C3.08864 9.91971 2.9888 9.92582 2.89302 9.95115C2.79725 9.97648 2.70744 10.0205 2.62879 10.0808C2.55013 10.141 2.48419 10.2162 2.43477 10.3021C2.38535 10.3879 2.35343 10.4827 2.34086 10.581L3.82686 10.785ZM18.8619 5.13801C15.0419 1.31801 8.86886 1.27801 5.07386 5.07401L6.13386 6.13401C9.33386 2.93501 14.5569 2.95401 17.8019 6.19801L18.8619 5.13801ZM5.13786 18.862C8.95786 22.682 15.1309 22.722 18.9259 18.926L17.8659 17.866C14.6659 21.065 9.44285 21.046 6.19786 17.802L5.13786 18.862ZM18.9259 18.926C22.7209 15.131 22.6819 8.95801 18.8619 5.13801L17.8019 6.19801C21.0459 9.44301 21.0649 14.666 17.8659 17.866L18.9259 18.926ZM5.07386 5.07401L3.80686 6.34001L4.86786 7.40001L6.13386 6.13401L5.07386 5.07401ZM4.33386 7.62101L6.87986 7.63301L6.88686 6.13301L4.34186 6.12101L4.33386 7.62101ZM5.08786 6.86701L5.07486 4.32101L3.57486 4.32901L3.58786 6.87401L5.08786 6.86701ZM2.33986 10.58C2.13452 12.0827 2.28032 13.6125 2.76579 15.0493C3.25127 16.4861 4.06321 17.7918 5.13786 18.862L6.19786 17.802C5.28708 16.8953 4.59896 15.7887 4.18756 14.5712C3.77616 13.3537 3.6527 12.0583 3.82686 10.785L2.33986 10.58Z" fill="#F29727"/>
</g>
</g>
</svg>
