<svg width="24" height="24" viewBox="0 0 24 24" fill="none" xmlns="http://www.w3.org/2000/svg">
<path d="M8.75998 1.73002H8.88999C13.33 1.73002 15.47 3.48002 15.84 7.40002C15.88 7.81002 15.58 8.18002 15.16 8.22002C14.76 8.26002 14.38 7.95002 14.34 7.54002C14.05 4.40002 12.57 3.23002 8.87998 3.23002H8.74998C4.67998 3.23002 3.23998 4.67002 3.23998 8.74002L3.23998 15.26C3.23998 19.33 4.67998 20.77 8.74998 20.77H8.87998C12.59 20.77 14.07 19.58 14.34 16.38C14.39 15.97 14.74 15.66 15.16 15.7C15.58 15.73 15.88 16.1 15.85 16.51C15.51 20.49 13.36 22.27 8.88999 22.27H8.75998C3.84999 22.27 1.74998 20.17 1.74998 15.26L1.74998 8.74002C1.74998 3.83002 3.84999 1.73002 8.75998 1.73002Z" fill="white"/>
<path d="M8.99988 11.25L20.3799 11.25C20.7899 11.25 21.1299 11.59 21.1299 12C21.1299 12.41 20.7899 12.75 20.3799 12.75L8.99988 12.75C8.58988 12.75 8.24988 12.41 8.24988 12C8.24988 11.59 8.58988 11.25 8.99988 11.25Z" fill="white"/>
<path d="M18.1501 7.89991C18.3401 7.89991 18.5301 7.96991 18.6801 8.11991L22.0301 11.4699C22.3201 11.7599 22.3201 12.2399 22.0301 12.5299L18.6801 15.8799C18.3901 16.1699 17.9101 16.1699 17.6201 15.8799C17.3301 15.5899 17.3301 15.1099 17.6201 14.8199L20.4401 11.9999L17.6201 9.17991C17.3301 8.88991 17.3301 8.40991 17.6201 8.11991C17.7601 7.96991 17.9601 7.89991 18.1501 7.89991Z" fill="white"/>
</svg>
