<svg width="23" height="24" viewBox="0 0 23 24" fill="none" xmlns="http://www.w3.org/2000/svg">
<g id="Group 4094">
<circle id="Ellipse 791" cx="11.5" cy="12" r="11.5" fill="#FFAE00"/>
<path id="Vector" d="M15.8889 16.3889H19V14.8333H15.8889V13.2778L13.5556 15.6111L15.8889 17.9444V16.3889ZM11.2222 5.5C9.51111 5.5 8.11111 6.9 8.11111 8.61111C8.11111 10.3222 9.51111 11.7222 11.2222 11.7222C12.9333 11.7222 14.3333 10.3222 14.3333 8.61111C14.3333 6.9 12.9333 5.5 11.2222 5.5ZM11.2222 13.2778C7.8 13.2778 5 14.6778 5 16.3889V17.9444H12.3889C12.1556 17.3222 12 16.7 12 16C12 15.0667 12.2333 14.2111 12.7 13.3556C12.2333 13.3556 11.7667 13.2778 11.2222 13.2778Z" fill="#FBFBFB"/>
</g>
</svg>
