<svg width="25" height="24" viewBox="0 0 25 24" fill="none" xmlns="http://www.w3.org/2000/svg">
<g id="iconoir:app-notification">
<path id="Vector" d="M21.5 12V15C21.5 16.5913 20.8679 18.1174 19.7426 19.2426C18.6174 20.3679 17.0913 21 15.5 21H9.5C7.9087 21 6.38258 20.3679 5.25736 19.2426C4.13214 18.1174 3.5 16.5913 3.5 15V9C3.5 7.4087 4.13214 5.88258 5.25736 4.75736C6.38258 3.63214 7.9087 3 9.5 3H12.5M19.5 8C20.2956 8 21.0587 7.68393 21.6213 7.12132C22.1839 6.55871 22.5 5.79565 22.5 5C22.5 4.20435 22.1839 3.44129 21.6213 2.87868C21.0587 2.31607 20.2956 2 19.5 2C18.7044 2 17.9413 2.31607 17.3787 2.87868C16.8161 3.44129 16.5 4.20435 16.5 5C16.5 5.79565 16.8161 6.55871 17.3787 7.12132C17.9413 7.68393 18.7044 8 19.5 8Z" stroke="#A2A3A7" stroke-width="1.5" stroke-linecap="round" stroke-linejoin="round"/>
</g>
</svg>
