<svg width="23" height="23" viewBox="0 0 23 23" fill="none" xmlns="http://www.w3.org/2000/svg">
<g id="Group 4094">
<circle id="Ellipse 791" cx="11.5" cy="11.5" r="11.5" fill="#34BD32"/>
<path id="Vector" d="M17.4941 11.5L18.4698 12.4828L13.9186 17.0758L11.5001 14.6364L12.4759 13.6537L13.9186 15.1034L17.4941 11.5ZM9.75769 14.6364L11.8486 16.7273H4.87891V15.3334C4.87891 13.7931 7.37406 12.5455 10.4547 12.5455L11.7719 12.6222L9.75769 14.6364ZM10.4547 5.57581C11.1941 5.57581 11.9032 5.86953 12.426 6.39236C12.9488 6.91518 13.2425 7.62429 13.2425 8.36368C13.2425 9.10308 12.9488 9.81218 12.426 10.335C11.9032 10.8578 11.1941 11.1516 10.4547 11.1516C9.71527 11.1516 9.00616 10.8578 8.48334 10.335C7.96051 9.81218 7.66679 9.10308 7.66679 8.36368C7.66679 7.62429 7.96051 6.91518 8.48334 6.39236C9.00616 5.86953 9.71527 5.57581 10.4547 5.57581Z" fill="#FBFBFB"/>
</g>
</svg>
