<svg width="25" height="24" viewBox="0 0 25 24" fill="none" xmlns="http://www.w3.org/2000/svg">
<g id="carbon:task">
<path id="Vector" d="M11 15.1351L8.3075 12.4426L7.25 13.5001L11 17.2501L17.75 10.5001L16.6925 9.43506L11 15.1351Z" fill="#A2A3A7"/>
<path id="Vector_2" d="M19.25 3.75H17V3C17 2.60218 16.842 2.22064 16.5607 1.93934C16.2794 1.65804 15.8978 1.5 15.5 1.5H9.5C9.10218 1.5 8.72064 1.65804 8.43934 1.93934C8.15804 2.22064 8 2.60218 8 3V3.75H5.75C5.35218 3.75 4.97064 3.90804 4.68934 4.18934C4.40804 4.47064 4.25 4.85218 4.25 5.25V21C4.25 21.3978 4.40804 21.7794 4.68934 22.0607C4.97064 22.342 5.35218 22.5 5.75 22.5H19.25C19.6478 22.5 20.0294 22.342 20.3107 22.0607C20.592 21.7794 20.75 21.3978 20.75 21V5.25C20.75 4.85218 20.592 4.47064 20.3107 4.18934C20.0294 3.90804 19.6478 3.75 19.25 3.75ZM9.5 3H15.5V6H9.5V3ZM19.25 21H5.75V5.25H8V7.5H17V5.25H19.25V21Z" fill="#A2A3A7"/>
</g>
</svg>
