<svg width="20" height="20" viewBox="0 0 20 20" fill="none" xmlns="http://www.w3.org/2000/svg">
<g id="fluent:warning-32-regular">
<path id="Vector" d="M10.7813 13.75C10.7813 13.9572 10.699 14.156 10.5524 14.3025C10.4059 14.449 10.2072 14.5313 10 14.5313C9.79282 14.5313 9.5941 14.449 9.44759 14.3025C9.30108 14.156 9.21877 13.9572 9.21877 13.75C9.21877 13.5428 9.30108 13.3441 9.44759 13.1976C9.5941 13.0511 9.79282 12.9688 10 12.9688C10.2072 12.9688 10.4059 13.0511 10.5524 13.1976C10.699 13.3441 10.7813 13.5428 10.7813 13.75ZM10 5.62504C9.83426 5.62504 9.67529 5.69089 9.55807 5.8081C9.44086 5.92531 9.37502 6.08428 9.37502 6.25004V11.25C9.37502 11.4158 9.44086 11.5748 9.55807 11.692C9.67529 11.8092 9.83426 11.875 10 11.875C10.1658 11.875 10.3247 11.8092 10.442 11.692C10.5592 11.5748 10.625 11.4158 10.625 11.25V6.25004C10.625 6.08428 10.5592 5.92531 10.442 5.8081C10.3247 5.69089 10.1658 5.62504 10 5.62504ZM8.08502 2.38066C8.91752 0.874414 11.0825 0.874414 11.915 2.38066L18.4731 14.255C19.2788 15.7125 18.2238 17.5 16.5588 17.5H3.44189C1.77627 17.5 0.721892 15.7125 1.52689 14.255L8.08502 2.38066ZM10.8206 2.98504C10.7396 2.83835 10.6208 2.71607 10.4764 2.63091C10.3321 2.54576 10.1676 2.50084 10 2.50084C9.83244 2.50084 9.66793 2.54576 9.5236 2.63091C9.37928 2.71607 9.26042 2.83835 9.17939 2.98504L2.62127 14.8594C2.54247 15.0021 2.50225 15.163 2.50458 15.326C2.50692 15.489 2.55173 15.6486 2.63459 15.789C2.71745 15.9294 2.83549 16.0458 2.97707 16.1266C3.11864 16.2075 3.27886 16.25 3.44189 16.25H16.5588C16.7218 16.25 16.882 16.2075 17.0236 16.1266C17.1652 16.0458 17.2832 15.9294 17.3661 15.789C17.4489 15.6486 17.4937 15.489 17.4961 15.326C17.4984 15.163 17.4582 15.0021 17.3794 14.8594L10.8206 2.98504Z" fill="#E7535D"/>
</g>
</svg>
